<svg viewBox="0 0 140 139" xmlns="http://www.w3.org/2000/svg" xml:space="preserve" style="fill-rule:evenodd;clip-rule:evenodd;stroke-linejoin:round;stroke-miterlimit:2">
  <path d="M77.096 4.861c8.626 1.25 26.664 1.255 38.144 8.662 11.48 7.406 23.331 23.701 24.071 34.07.741 10.369 1.111 32.219-1.481 37.403-2.592 5.185-6.295 21.48-15.183 29.997-8.888 8.518-32.589 23.331-45.181 22.591-12.591-.741-32.219-9.593-38.514-11.444-6.296-1.852-15.554-11.147-24.072-21.516C6.363 94.255 3.771 77.22 6.733 63.517c2.963-13.702 5.055-28.886 10.369-36.662C22.416 19.077 39.693 4.49 53.395 2.268 67.097.046 71.794 4.092 77.096 4.861" style="fill:#341159;fill-opacity:.3;fill-rule:nonzero"/>
  <path d="M71.541 3.251c8.626 1.25 26.664 1.256 38.144 8.662 11.48 7.407 23.331 23.702 24.072 34.071.74 10.369 1.11 32.219-1.482 37.403-2.592 5.185-6.295 21.479-15.183 29.997s-32.589 23.331-45.181 22.59c-12.591-.74-32.219-9.592-38.514-11.444-6.296-1.851-15.554-11.146-24.072-21.515C.808 92.646-1.785 75.61 1.178 61.908c2.963-13.702 5.055-28.886 10.369-36.663C16.861 17.468 34.138 2.881 47.84.659c13.702-2.222 18.398 1.824 23.701 2.592" style="fill:#c97926;fill-rule:nonzero"/>
  <path d="M110.426 19.32c12.901 6.45 19.627 32.219 18.146 45.551-1.481 13.332-9.259 22.96-13.332 31.848-4.074 8.888-10.74 14.073-16.665 15.554-5.925 1.481-17.405-2.592-24.812-2.592s-12.962-8.518-19.258-14.813c-6.295-6.296-17.035-9.629-21.478-15.184-4.445-5.555-12.592-14.813-12.962-21.479-.37-6.666 0-25.923 5.925-34.812 5.926-8.887 22.961-17.405 30.367-17.035 7.407.371 18.517 6.296 23.331 6.296s23.331 2.963 30.738 6.666ZM19.964 77.833c2.617 1.592 21.95 17.405 22.321 21.108.37 3.704-1.852 10.74-6.666 8.888-4.815-1.851-7.407-8.888-12.591-12.591-5.185-3.703-8.382-20.64-3.064-17.405Z" style="fill:#e6a240;fill-opacity:.7"/>
  <path d="M71.912 135.974c-12.591-.74-32.219-9.592-38.515-11.444-6.295-1.851-15.554-11.146-24.071-21.515C.808 92.646-1.784 75.61 1.178 61.908c.397-1.846.781-3.696 1.15-5.548v.001C.515 74.515 4.297 94.721 13.77 100.052c9.472 5.331 18.886 19.628 27.034 21.109 8.147 1.481 15.184 5.926 31.849 8.147 16.664 2.222 44.439-15.924 53.828-30.838l.003.009c-2.294 5.387-5.29 10.974-9.392 14.905-8.888 8.518-32.589 23.331-45.18 22.59" style="fill:#a86120;fill-rule:nonzero"/>
  <path d="M70.245 17.792c3.75-.268 7.499 4.445 6.388 6.111-1.111 1.666-5.416 5.138-7.499 3.888-2.083-1.249-2.777-9.721 1.111-9.999Zm4.124 44.301c2.998-.884 7.958 8.332 6.569 10.277-1.389 1.944-4.945 4.583-6.569 3.055-1.624-1.527-5.181-11.804 0-13.332Zm6.81 37.635c3.364.416 1.628 4.905 0 4.953-1.629.047-3.371-5.369 0-4.953ZM45.251 71.537c3.2.145 3.608 4.861 1.941 5.277-1.667.417-5.013 1.329-4.867-.933.145-2.261-.126-4.483 2.926-4.344Zm-4.864-46.94c4.737.586 13.61 4.861 14.027 8.888.416 4.028-2.361 12.638-5.139 13.887-2.777 1.25-10.832 1.528-14.304-.972-3.471-2.499-6.666-4.86-6.249-9.304.416-4.444 7.65-12.995 11.665-12.499Zm61.522 6.25c4.512 2.222 14.026 11.11 11.526 16.248-2.5 5.138-10.554 12.082-14.721 10.694-4.166-1.389-11.665-9.403-11.526-13.382.139-3.978 10.292-15.741 14.721-13.56Zm10.693 48.189c7.186 1.797 11.526 9.85 9.443 13.743-2.083 3.894-10.832 14.31-15.276 11.393-4.444-2.916-7.784-5.277-6.252-9.582 1.531-4.305 5.974-17.081 12.085-15.554ZM62.051 96.18c4.307 1.181 9.722 14.103 6.389 17.574-3.334 3.472-15.415 3.75-17.915 1.806s-6.805-7.222-4.722-12.221c2.083-5 7.361-9.595 16.248-7.159ZM17.89 56.36c4.466-1.531 11.036 3.651 10.795 8.511-.241 4.86-1.929 15.126-5.876 15.063-3.947-.065-8.252.19-9.502-5.492-1.25-5.683-.973-16.177 4.583-18.082Z" style="fill:#6b3310"/>
  <path d="M45.237 29.319c3.144 0 6.816 4.245 6.121 7.121-.694 2.878-3.326 9.683-6.107 8.433s-4.33-15.554-.014-15.554Zm55.279 4.999c2.882-1.446 10.835 7.639 9.863 11.527-.972 3.888-4.86 7.916-7.499 5.832-2.639-2.083-6.23-15.418-2.364-17.359Zm11.808 48.328c3.789-.802 7.222 7.628 5.833 10.133-1.389 2.505-9.166 4.022-9.999 0-.834-4.022-1.09-9.019 4.166-10.133ZM60.385 99.034c3.072.452 7.083 6.812 5.138 9.1-1.944 2.288-8.805-.451-11.068-1.998-2.264-1.547-3.513-8.491 5.93-7.102ZM23.028 59.472c5.076 2.561 4.166 11.497 1.944 12.059-2.222.561-7.36-5.688-6.805-8.882.556-3.194.434-5.411 4.861-3.177Z" style="fill:#93572e"/>
</svg>
